<svg width="28" height="22" viewBox="0 0 28 22" fill="none" xmlns="http://www.w3.org/2000/svg">
<path d="M19.7917 13.75H18.5408L18.0975 13.4125C19.6492 11.9875 20.5833 10.1375 20.5833 8.125C20.5833 3.6375 15.9758 0 10.2917 0C4.6075 0 0 3.6375 0 8.125C0 12.6125 4.6075 16.25 10.2917 16.25C12.8408 16.25 15.1842 15.5125 16.9892 14.2875L17.4167 14.6375V15.625L25.3333 21.8625L27.6925 20L19.7917 13.75V13.75ZM10.2917 13.75C6.34917 13.75 3.16667 11.2375 3.16667 8.125C3.16667 5.0125 6.34917 2.5 10.2917 2.5C14.2342 2.5 17.4167 5.0125 17.4167 8.125C17.4167 11.2375 14.2342 13.75 10.2917 13.75Z" fill="white"/>
</svg>
